<svg width="631" height="396" viewBox="0 0 631 396" fill="none" xmlns="http://www.w3.org/2000/svg">
<g filter="url(#filter0_d_648_1733)">
<rect width="627" height="392" rx="12" fill="white"/>
<rect x="0.5" y="0.5" width="626" height="391" rx="11.5" stroke="black"/>
</g>
<mask id="mask0_648_1733" style="mask-type:alpha" maskUnits="userSpaceOnUse" x="1" y="2" width="626" height="388">
<rect x="1" y="2" width="626" height="388" rx="12" fill="white"/>
</mask>
<g mask="url(#mask0_648_1733)">
<path d="M-25.7915 10.1215C25.6267 34.3345 126.613 105.832 119.213 198.115C111.813 290.399 250.55 336.623 320.843 348.2C357.873 352.808 452.503 375.097 534.785 427.39" stroke="#F7C430" stroke-width="50"/>
<path d="M369.191 509.526C318.541 483.746 219.796 409.183 230.025 317.17C240.253 225.157 103.001 174.697 33.0958 160.968C-3.77518 155.226 -97.6766 130.043 -178.314 75.2489" stroke="#F7C430" stroke-opacity="0.27" stroke-width="50"/>
</g>
<defs>
<filter id="filter0_d_648_1733" x="0" y="0" width="631" height="396" filterUnits="userSpaceOnUse" color-interpolation-filters="sRGB">
<feFlood flood-opacity="0" result="BackgroundImageFix"/>
<feColorMatrix in="SourceAlpha" type="matrix" values="0 0 0 0 0 0 0 0 0 0 0 0 0 0 0 0 0 0 127 0" result="hardAlpha"/>
<feOffset dx="4" dy="4"/>
<feComposite in2="hardAlpha" operator="out"/>
<feColorMatrix type="matrix" values="0 0 0 0 0 0 0 0 0 0 0 0 0 0 0 0 0 0 1 0"/>
<feBlend mode="normal" in2="BackgroundImageFix" result="effect1_dropShadow_648_1733"/>
<feBlend mode="normal" in="SourceGraphic" in2="effect1_dropShadow_648_1733" result="shape"/>
</filter>
</defs>
</svg>
